# xmcd CD database file
#
# Track frame offsets:
#	150
#	9877
#	37748
#	60816
#	89866
#	114244
#	143451
#	178041
#
# Disc length: 2912 seconds
#
# Revision: 0
# Processed by: cddbd v1.5.2PL0 Copyright (c) Steve Scherf et al.
# Submitted via: CDex 1.51
#
DISCID=520b5e08
DTITLE=Hour Of 13 - The Ritualist
DYEAR=2010
DGENRE=Heavy/Doom Metal
TTITLE0=The Gathering
TTITLE1=The Ritualist
TTITLE2=Naked Star
TTITLE3=Demons All Around Me
TTITLE4=Possession
TTITLE5=Soldiers Of Satan
TTITLE6=Evil Inside
TTITLE7=The Crawlspace
EXTD=YEAR: 2010
EXTT0=
EXTT1=
EXTT2=
EXTT3=
EXTT4=
EXTT5=
EXTT6=
EXTT7=
PLAYORDER=
